# xmcd CD database file
#
# Track frame offsets:
#	150
#	16516
#	27505
#	40293
#	53663
#	76293
#	87437
#	106665
#	122888
#	140130
#	153497
#	165540
#	177240
#	191138
#	207129
#
# Disc length: 2945 seconds
#
# Revision: 3
# Processed by: cddbd v1.5.2PL0 Copyright (c) Steve Scherf et al.
# Submitted via: CDex 1.70beta2
#
DISCID=c10b7f0f
DTITLE=Jazz divas - Jazz divas
DYEAR=1900
DGENRE=Jazz
TTITLE0=Nina Simone - My Baby Just Cares For Me
TTITLE1=Shirley Horn - I Just Found Out About Love
TTITLE2=Helen Merrill and Stan Getz - Baby Ain't I Good To You
TTITLE3=Peggy Lee - I Don't Know Enough About You
TTITLE4=Patti Austin - Love Is Gonna Getch
TTITLE5=Dinah Washington - Makin' Whoopee
TTITLE6=Blossom Dearie -  Manhattan
TTITLE7=Laura Fygi - Just One Of These Things
TTITLE8=Billie Holiday -  Moonlight In Vermont
TTITLE9=Sarah  Vaughan - My Funny Valentine
TTITLE10=Anita O'Day - Tenderly
TTITLE11=Carmen McRae - Blue Moon
TTITLE12=Cassandra Wilson - I'm Old Fashioned
TTITLE13=Ella Fitzgerald and Buddy Bregman Orchestra - Ev'ry Time We Say Goodbye
TTITLE14=Astrud Gilberto - Once Upon A Summertime
EXTD=
EXTT0=
EXTT1=
EXTT2=
EXTT3=
EXTT4=
EXTT5=
EXTT6=
EXTT7=
EXTT8=
EXTT9=
EXTT10=
EXTT11=
EXTT12=
EXTT13=
EXTT14=
PLAYORDER=
